België
Drama
90 minuten

geregisseerd door Erik Lamens
met Axel Daeseleire, Veerle Dobbelaere en Gene Bervoets

Wanneer Koens huwelijk met Magda uiteen dreigt te vallen, beslist hij om zijn eigen fatsoensgrenzen tot het uiterste te testen. Samen ontdekken ze haar verborgen verlangens. Nooit had Koen gedacht dat SM tot een gelukkig huwelijk zou kunnen leiden. Maar wanneer gaandeweg Magda verder gaat, en extremere vormen van genotsbeleving opzoekt, raakt het koppel verstrikt in een web van pooiers, klikkende rijkswachters en afgunstige collega's.

Format : AVI
Format/Info : Audio Video Interleave
File size : 331 MiB
Duration : 1h 24mn
Overall bit rate : 548 Kbps
Writing library : VirtualDub build 30586/release

Video
ID : 0
Format : MPEG-4 Visual
Format profile : Advanced Simple@L5
Format settings, BVOP : Yes
Format settings, QPel : No
Format settings, GMC : No warppoints
Format settings, Matrix : Default (H.263)
Muxing mode : Packed bitstream
Codec ID : XVID
Codec ID/Hint : XviD
Duration : 1h 24mn
Bit rate : 426 Kbps
Width : 640 pixels
Height : 368 pixels
Display aspect ratio : 16/9
Frame rate : 25.000 fps
Resolution : 24 bits
Colorimetry : 4:2:0
Scan type : Progressive
Bits/(Pixel*Frame) : 0.072
Stream size : 257 MiB (78%)
Writing library : XviD 1.2.1 (UTC 2008-12-04)

Audio
ID : 1
Format : MPEG Audio
Format version : Version 1
Format profile : Layer 3
Codec ID : 55
Codec ID/Hint : MP3
Duration : 1h 24mn
Bit rate mode : Constant
Bit rate : 112 Kbps
Channel(s) : 2 channels
Sampling rate : 48.0 KHz
Resolution : 16 bits
Stream size : 67.7 MiB (20%)
Alignment : Split accross interleaves
Interleave, duration : 40 ms (1.00 video frame)
Interleave, preload duration : 500 ms